<?xml version="1.0" encoding="UTF-8"?>
<svg version="1.1" xmlns="http://www.w3.org/2000/svg" width="196" height="138">
<path d="M0 0 C64.68 0 129.36 0 196 0 C196 45.54 196 91.08 196 138 C131.32 138 66.64 138 0 138 C0 92.46 0 46.92 0 0 Z " fill="#FDFEFE" transform="translate(0,0)"/>
<path d="M0 0 C5.43198278 3.07564322 8.86070096 8.10966763 10.7109375 13.96875 C11.61460911 20.76636868 11.16503974 27.92407108 7.7109375 33.96875 C3.41655788 38.72835408 -0.26362791 41.73317667 -6.80078125 42.2421875 C-20.42931032 42.71117885 -20.42931032 42.71117885 -25.80859375 38.53125 C-31.99359124 32.00354817 -32.66496852 24.86616611 -32.55859375 16.23046875 C-32.09585458 10.63065418 -30.49268209 6.99058206 -26.34765625 3.1875 C-18.50149039 -2.93915622 -9.26488093 -4.08411078 0 0 Z " fill="#3493C4" transform="translate(134.2890625,47.03125)"/>
<path d="M0 0 C4.47771842 3.8526562 6.6597846 8.44596411 7.21875 14.28515625 C7.4657153 20.9429291 6.93858419 27.69322442 2.34765625 32.859375 C-1.4138408 36.19939352 -4.15639883 37.86086029 -9.3125 38.25 C-13.41952575 37.97155758 -16.99912226 37.00087774 -20 34 C-20.02578125 34.96421875 -20.0515625 35.9284375 -20.078125 36.921875 C-20.13484375 38.18515625 -20.1915625 39.4484375 -20.25 40.75 C-20.31960937 42.62945312 -20.31960937 42.62945312 -20.390625 44.546875 C-21 48 -21 48 -22.609375 50.453125 C-25.81569722 52.52780408 -28.25139799 52.10816427 -32 52 C-32.07443429 46.28917253 -32.12873634 40.5786306 -32.16479492 34.86743164 C-32.17983491 32.92662636 -32.20027214 30.9858548 -32.22631836 29.04516602 C-32.26291295 26.24747368 -32.27977448 23.45023267 -32.29296875 20.65234375 C-32.30845261 19.7916478 -32.32393646 18.93095184 -32.33988953 18.04417419 C-32.34139714 12.58624905 -31.60391668 8.82696884 -29 4 C-21.08586557 -3.91413443 -9.83128254 -5.7313372 0 0 Z " fill="#42AEDD" transform="translate(70,49)"/>
<path d="M0 0 C2.475 0.99 2.475 0.99 5 2 C4 10.57142857 4 10.57142857 3 14 C1.68 14 0.36 14 -1 14 C0.12929018 17.38787053 0.96342837 18.04030919 3.75 20.125 C4.42546875 20.64320312 5.1009375 21.16140625 5.796875 21.6953125 C8.36509396 23.21620812 10.00815299 23.84840119 13 24 C16.11867547 22.7887229 16.11867547 22.7887229 19.1875 21 C21.09601238 19.94572929 23.02876925 18.93174866 25 18 C25.66 18.33 26.32 18.66 27 19 C25.60886005 20.27596932 24.21185587 21.54554648 22.8125 22.8125 C22.03519531 23.52019531 21.25789063 24.22789063 20.45703125 24.95703125 C17.10866984 27.7411219 14.33073449 29.77821092 10 30.5 C6.01259802 29.835433 4.6900735 27.90818757 2 25 C-0.9254644 24.7763932 -0.9254644 24.7763932 -3 26 C-2.36771484 26.93972656 -2.36771484 26.93972656 -1.72265625 27.8984375 C-1.17480469 28.71570313 -0.62695312 29.53296875 -0.0625 30.375 C0.48277344 31.18710937 1.02804688 31.99921875 1.58984375 32.8359375 C4.13957086 36.74881511 4.08656635 39.32541698 4 44 C3.01 44 2.02 44 1 44 C1.99 44.66 2.98 45.32 4 46 C3.67 47.65 3.34 49.3 3 51 C0.1875 51.3125 0.1875 51.3125 -3 51 C-5.27338765 48.3477144 -5.95526736 46.67098964 -6.1875 43.1875 C-6.125625 42.465625 -6.06375 41.74375 -6 41 C-7.32 40.67 -8.64 40.34 -10 40 C-10 39.01 -10 38.02 -10 37 C-18.05072379 35.09810883 -26.03336205 34.63254628 -34.26855469 34.34204102 C-35.52974121 34.29454712 -35.52974121 34.29454712 -36.81640625 34.24609375 C-37.95251343 34.21020142 -37.95251343 34.21020142 -39.11157227 34.17358398 C-41 34 -41 34 -43 33 C-42.67 32.01 -42.34 31.02 -42 30 C-39.29172996 29.52047335 -36.58338656 29.04136769 -33.875 28.5625 C-33.11445312 28.42779297 -32.35390625 28.29308594 -31.5703125 28.15429688 C-30.06725299 27.88866998 -28.56383575 27.62505896 -27.06005859 27.36352539 C-25.33932533 27.05987857 -23.62225222 26.73558376 -21.90625 26.40625 C-18.44916863 25.92300207 -15.11428274 25.90458224 -11.625 25.9375 C-9.75714844 25.95103516 -9.75714844 25.95103516 -7.8515625 25.96484375 C-6.44003906 25.98224609 -6.44003906 25.98224609 -5 26 C-5 25.34 -5 24.68 -5 24 C-5.66 24 -6.32 24 -7 24 C-7.495 22.515 -7.495 22.515 -8 21 C-10.06956129 18.61037195 -10.06956129 18.61037195 -13 17 C-18.57730127 16.89274421 -22.45108694 19.12776883 -27.08203125 21.94140625 C-29 23 -29 23 -31 23 C-28.93074464 18.08684497 -25.26563578 15.94806488 -21 13 C-20.113125 12.360625 -19.22625 11.72125 -18.3125 11.0625 C-15.36948861 9.71030558 -14.01471387 9.88931594 -11 11 C-10 12 -9 13 -8 14 C-6.68 14 -5.36 14 -4 14 C-4 12.02 -4 10.04 -4 8 C-5.98 8 -7.96 8 -10 8 C-9.67 7.01 -9.34 6.02 -9 5 C-8.34 5 -7.68 5 -7 5 C-7 4.34 -7 3.68 -7 3 C-3.535 2.505 -3.535 2.505 0 2 C0 1.34 0 0.68 0 0 Z " fill="#28AB92" transform="translate(151,7)"/>
<path d="M0 0 C2.85189077 1.66360295 4.48756634 2.7325444 5.734375 5.81640625 C6.08697158 8.71495752 5.34714183 10.49632239 4.25 13.1875 C3.90453125 14.06792969 3.5590625 14.94835938 3.203125 15.85546875 C2 18 2 18 -1 19 C-0.38125 19.825 0.2375 20.65 0.875 21.5 C2.55089537 23.98738155 3.41331833 26.13840819 4.0625 29.0625 C5.21891677 34.2515496 6.74218965 37.11213387 11.1875 40.25 C12.115625 40.8275 13.04375 41.405 14 42 C14 42.33 14 42.66 14 43 C11.125 43.125 11.125 43.125 8 43 C7.34 42.34 6.68 41.68 6 41 C4.01508358 41.26676204 4.01508358 41.26676204 2 42 C-3.51172692 43.83724231 -10.710868 44.38489768 -16.15234375 42.09375 C-18.64232866 40.19429941 -19.92713702 38.17406157 -21.125 35.3125 C-20.8985205 29.31079336 -18.64846212 23.92320581 -14.75 19.375 C-14.1725 18.92125 -13.595 18.4675 -13 18 C-13.495 17.505 -13.99 17.01 -14.5 16.5 C-16.56778317 13.05369472 -16.84389736 9.86658424 -16 6 C-11.27312842 0.1536062 -7.25973192 -0.91530299 0 0 Z " fill="#59585A" transform="translate(97,46)"/>
<path d="M0 0 C4.09392752 2.43893554 5.52447026 4.5540807 7 9 C7.90186095 16.11002001 7.29914189 21.2268666 3 27 C-1.45577347 29.97051564 -5.77442606 29.62737491 -11 29 C-14.67928873 26.8975493 -16.45472568 24.89006015 -18 21 C-18.30078125 17.94140625 -18.30078125 17.94140625 -18.3125 14.5625 C-18.32925781 13.45003906 -18.34601563 12.33757812 -18.36328125 11.19140625 C-17.82565408 6.46838048 -15.63552829 3.02960691 -12 0 C-7.81597182 -1.39467606 -4.27099461 -0.96829228 0 0 Z " fill="#F5FCFD" transform="translate(129,53)"/>
<path d="M0 0 C2.475 0.99 2.475 0.99 5 2 C4 10.57142857 4 10.57142857 3 14 C1.68 14 0.36 14 -1 14 C0.12929018 17.38787053 0.96342837 18.04030919 3.75 20.125 C4.42546875 20.64320312 5.1009375 21.16140625 5.796875 21.6953125 C8.36509396 23.21620812 10.00815299 23.84840119 13 24 C16.11867547 22.7887229 16.11867547 22.7887229 19.1875 21 C21.09601238 19.94572929 23.02876925 18.93174866 25 18 C25.66 18.33 26.32 18.66 27 19 C25.60886005 20.27596932 24.21185587 21.54554648 22.8125 22.8125 C22.03519531 23.52019531 21.25789063 24.22789063 20.45703125 24.95703125 C17.10866984 27.7411219 14.33073449 29.77821092 10 30.5 C6.01259802 29.835433 4.6900735 27.90818757 2 25 C-0.9254644 24.7763932 -0.9254644 24.7763932 -3 26 C-2.67 26.66 -2.34 27.32 -2 28 C-7.61 27.67 -13.22 27.34 -19 27 C-19 26.67 -19 26.34 -19 26 C-14.38 26 -9.76 26 -5 26 C-5 25.34 -5 24.68 -5 24 C-5.66 24 -6.32 24 -7 24 C-7.33 23.01 -7.66 22.02 -8 21 C-10.06956129 18.61037195 -10.06956129 18.61037195 -13 17 C-18.57730127 16.89274421 -22.45108694 19.12776883 -27.08203125 21.94140625 C-29 23 -29 23 -31 23 C-28.93074464 18.08684497 -25.26563578 15.94806488 -21 13 C-20.113125 12.360625 -19.22625 11.72125 -18.3125 11.0625 C-15.36948861 9.71030558 -14.01471387 9.88931594 -11 11 C-10 12 -9 13 -8 14 C-6.68 14 -5.36 14 -4 14 C-4 12.02 -4 10.04 -4 8 C-5.98 8 -7.96 8 -10 8 C-9.67 7.01 -9.34 6.02 -9 5 C-8.34 5 -7.68 5 -7 5 C-7 4.34 -7 3.68 -7 3 C-3.535 2.505 -3.535 2.505 0 2 C0 1.34 0 0.68 0 0 Z " fill="#C5EFE9" transform="translate(151,7)"/>
<path d="M0 0 C8.41895422 -0.41785251 14.99256519 -0.18773224 21.75 5.1875 C26.66103024 11.32628781 28.65856707 16.29590788 28.31640625 24.25390625 C27.63064595 30.20562833 26.52109757 35.08857723 21.8125 39.0625 C20.4203125 40.0215625 20.4203125 40.0215625 19 41 C19 38.69 19 36.38 19 34 C17.02 34.495 17.02 34.495 15 35 C15.7425 33.6078125 15.7425 33.6078125 16.5 32.1875 C19.08071413 26.14125547 18.86190858 19.68149336 16.875 13.5 C14.47321278 10.29761705 12.80613179 9.2687106 9 8 C5.98019096 7.77795522 3.02084829 7.8187491 0 8 C0.66 7.67 1.32 7.34 2 7 C2.33 6.01 2.66 5.02 3 4 C3.66 3.67 4.32 3.34 5 3 C2.03 2.505 2.03 2.505 -1 2 C-0.67 1.34 -0.34 0.68 0 0 Z " fill="#2A84C5" transform="translate(117,45)"/>
<path d="M0 0 C1.3303125 0.433125 1.3303125 0.433125 2.6875 0.875 C2.6875 2.195 2.6875 3.515 2.6875 4.875 C2.0275 4.875 1.3675 4.875 0.6875 4.875 C-0.12493525 8.43424014 -0.44774922 11.72627695 -0.4375 15.375 C-0.44007812 16.2928125 -0.44265625 17.210625 -0.4453125 18.15625 C-0.31358736 20.85274117 -0.03627203 23.27308537 0.6875 25.875 C1.3475 26.205 2.0075 26.535 2.6875 26.875 C2.0275 26.875 1.3675 26.875 0.6875 26.875 C0.6875 27.535 0.6875 28.195 0.6875 28.875 C0.0275 28.875 -0.6325 28.875 -1.3125 28.875 C-1.28929687 29.91140625 -1.26609375 30.9478125 -1.2421875 32.015625 C-1.22342333 33.38540944 -1.20522382 34.7552017 -1.1875 36.125 C-1.17074219 36.80691406 -1.15398438 37.48882812 -1.13671875 38.19140625 C-1.10036518 41.9358235 -1.23305651 44.69852727 -3.3125 47.875 C-5.2925 47.875 -7.2725 47.875 -9.3125 47.875 C-9.33743183 43.34009185 -9.35546857 38.80522461 -9.36743164 34.27026367 C-9.37242496 32.73119409 -9.37922194 31.19212916 -9.38793945 29.65307617 C-9.51281593 7.02105082 -9.51281593 7.02105082 -6.125 2.25 C-3.3125 -0.125 -3.3125 -0.125 0 0 Z " fill="#09A5E5" transform="translate(48.3125,51.125)"/>
<path d="M0 0 C3.60731453 0.18985866 4.26231833 0.39920242 7 3 C9.47029156 7.32301023 10.03573047 10.65563807 9.5 15.625 C8.15059348 18.93717963 7.0207227 21.1042773 4.5 23.625 C2.4765625 23.99609375 2.4765625 23.99609375 0.125 24.0625 C-0.64585938 24.10246094 -1.41671875 24.14242187 -2.2109375 24.18359375 C-4.5 23.625 -4.5 23.625 -6.7578125 21.50390625 C-8.81755531 18.10025053 -9.03694756 16.07838858 -9 12.125 C-9.01546875 10.46984375 -9.01546875 10.46984375 -9.03125 8.78125 C-8.13442225 3.4530381 -5.65788854 -0.09688165 0 0 Z " fill="#F6FCFC" transform="translate(57.5,54.375)"/>
<path d="M0 0 C-0.33 1.32 -0.66 2.64 -1 4 C-0.34 4.33 0.32 4.66 1 5 C0.34 5.66 -0.32 6.32 -1 7 C-2.4699081 9.59395546 -3.73681486 12.01723503 -4 15 C-3.484375 15.99 -2.96875 16.98 -2.4375 18 C-1 21 -1 21 -1.6875 23.25 C-3 25 -3 25 -5 27 C-5.41666667 30 -5.41666667 30 -5 33 C-1.79619983 35.13586678 -0.98060033 35.23132175 2.6875 35.125 C3.49574219 35.10695312 4.30398437 35.08890625 5.13671875 35.0703125 C5.75160156 35.04710937 6.36648437 35.02390625 7 35 C7 35.66 7 36.32 7 37 C7.66 37.33 8.32 37.66 9 38 C9 38.99 9 39.98 9 41 C3.48827308 42.83724231 -3.710868 43.38489768 -9.15234375 41.09375 C-11.64232866 39.19429941 -12.92713702 37.17406157 -14.125 34.3125 C-13.8985205 28.31079336 -11.64846212 22.92320581 -7.75 18.375 C-7.1725 17.92125 -6.595 17.4675 -6 17 C-6.495 16.505 -6.99 16.01 -7.5 15.5 C-9.57204343 12.04659428 -9.82838062 8.8734464 -9 5 C-5.99057097 0.98742796 -5.10203966 0 0 0 Z " fill="#494849" transform="translate(90,47)"/>
<path d="M0 0 C5.0764689 0.02211969 8.08344962 0.16145391 11.9375 3.6875 C16.27261052 10.64995022 17.22810978 17.53238796 15.4296875 25.5390625 C14.22527472 29.43121748 13.2550808 32.37965995 10 35 C7.3125 35.1875 7.3125 35.1875 5 35 C4.94552953 33.58376784 4.90699492 32.16691809 4.875 30.75 C4.85179688 29.96109375 4.82859375 29.1721875 4.8046875 28.359375 C5.02001237 25.75825063 5.80030986 24.29031754 7 22 C7.44500285 19.87406942 7.44500285 19.87406942 7.625 17.75 C7.74875 16.5125 7.8725 15.275 8 14 C7.01 14 6.02 14 5 14 C4.62875 12.6078125 4.62875 12.6078125 4.25 11.1875 C2.93545755 7.83541675 2.02036616 6.8122197 -1 5 C-0.67 3.35 -0.34 1.7 0 0 Z " fill="#129AD9" transform="translate(61,48)"/>
<path d="M0 0 C-1.62339805 1.70884005 -3.29319053 3.37446717 -5 5 C-5.66 5 -6.32 5 -7 5 C-7.268125 5.639375 -7.53625 6.27875 -7.8125 6.9375 C-9 9 -9 9 -12 10 C-13.97493551 13.7772368 -14.53258385 17.62327153 -15.125 21.8125 C-15.37636719 23.55466797 -15.37636719 23.55466797 -15.6328125 25.33203125 C-15.75398438 26.21246094 -15.87515625 27.09289062 -16 28 C-19 28 -19 28 -22 26 C-23.02642158 19.4715889 -22.88299368 12.4786085 -19.3828125 6.7265625 C-13.68273809 -0.39047956 -8.87268912 -1.9999914 0 0 Z " fill="#109EDE" transform="translate(124,47)"/>
<path d="M0 0 C0.99 0.33 1.98 0.66 3 1 C2.67 1.66 2.34 2.32 2 3 C2.62390625 3.07089844 3.2478125 3.14179687 3.890625 3.21484375 C6 4 6 4 7.046875 6.06640625 C7.27890625 6.89011719 7.5109375 7.71382812 7.75 8.5625 C7.99234375 9.38878906 8.2346875 10.21507812 8.484375 11.06640625 C8.65453125 11.70449219 8.8246875 12.34257813 9 13 C10.98 13 12.96 13 15 13 C15 11.68 15 10.36 15 9 C12.69 8.67 10.38 8.34 8 8 C8.33 7.34 8.66 6.68 9 6 C9.94875 6.020625 10.8975 6.04125 11.875 6.0625 C14.90666283 6.22551826 14.90666283 6.22551826 17 5 C17.86963087 7.99706695 18.11763099 10.64956526 18.09765625 13.765625 C18.09443359 14.65507813 18.09121094 15.54453125 18.08789062 16.4609375 C18.07951172 17.38132812 18.07113281 18.30171875 18.0625 19.25 C18.05798828 20.18585938 18.05347656 21.12171875 18.04882812 22.0859375 C18.03706918 24.39069041 18.02063426 26.69531227 18 29 C17.01 29 16.02 29 15 29 C14.51080078 28.07767578 14.51080078 28.07767578 14.01171875 27.13671875 C13.57472656 26.32847656 13.13773438 25.52023438 12.6875 24.6875 C12.25824219 23.88699219 11.82898438 23.08648437 11.38671875 22.26171875 C10.08631086 20.1407718 8.91113733 18.583221 7 17 C6.34 17 5.68 17 5 17 C4.74605469 16.48050781 4.49210938 15.96101563 4.23046875 15.42578125 C3.88628906 14.72839844 3.54210937 14.03101563 3.1875 13.3125 C2.82785156 12.58160156 2.46820313 11.85070312 2.09765625 11.09765625 C0.96508892 8.83450919 0.96508892 8.83450919 -0.875 6.25 C-1.24625 5.5075 -1.6175 4.765 -2 4 C-1.1875 1.6875 -1.1875 1.6875 0 0 Z " fill="#E1F6F9" transform="translate(139,44)"/>
<path d="M0 0 C0.33 0 0.66 0 1 0 C1.03738281 0.89203125 1.07476562 1.7840625 1.11328125 2.703125 C1.17902344 3.87359375 1.24476562 5.0440625 1.3125 6.25 C1.37050781 7.41015625 1.42851563 8.5703125 1.48828125 9.765625 C2.02595456 13.16404866 2.48818251 14.67445212 5 17 C7.16547803 17.62963937 7.16547803 17.62963937 9.5 17.5 C10.2734375 17.5103125 11.046875 17.520625 11.84375 17.53125 C14.12224248 17.16371273 14.12224248 17.16371273 15.70703125 15.328125 C17.21649052 12.61018626 17.712888 10.31672368 18.1875 7.25 C18.34605469 6.26515625 18.50460938 5.2803125 18.66796875 4.265625 C18.83232422 3.14414062 18.83232422 3.14414062 19 2 C19.66 2 20.32 2 21 2 C21.16339417 6.90182513 21.215298 9.63653424 19 14 C18.55188863 16.35564596 18.55188863 16.35564596 18.375 18.75 C18.30023438 19.54921875 18.22546875 20.3484375 18.1484375 21.171875 C18.09945312 21.77515625 18.05046875 22.3784375 18 23 C19.32 23.33 20.64 23.66 22 24 C17.44784545 26.66467584 14.2694336 27.56458217 9 27 C5.625 25.8125 5.625 25.8125 3 24 C2.0625 21.4375 2.0625 21.4375 2 19 C2.33 18.34 2.66 17.68 3 17 C2.34 17 1.68 17 1 17 C-0.72519266 13.26321906 -1.24853628 10.3560768 -1.1875 6.25 C-1.17783203 4.80367188 -1.17783203 4.80367188 -1.16796875 3.328125 C-1 1 -1 1 0 0 Z " fill="#3095CB" transform="translate(48,60)"/>
<path d="M0 0 C4.06358352 3.48539829 7.53518051 7.79175294 9 13 C5.57916129 11.89325807 3.80045802 10.81347163 1.125 8.3125 C-1.79663435 5.69579615 -1.79663435 5.69579615 -5.3125 5.875 C-9.30403709 7.09275708 -12.52962714 8.78306089 -16.08203125 10.94140625 C-18 12 -18 12 -20 12 C-17.93074464 7.08684497 -14.26563578 4.94806488 -10 2 C-9.113125 1.360625 -8.22625 0.72125 -7.3125 0.0625 C-4.33782231 -1.3042438 -3.09838029 -0.95946822 0 0 Z " fill="#2BA992" transform="translate(140,18)"/>
<path d="M0 0 C-0.33 1.32 -0.66 2.64 -1 4 C-0.34 4.33 0.32 4.66 1 5 C0.34 5.66 -0.32 6.32 -1 7 C-2.4699081 9.59395546 -3.73681486 12.01723503 -4 15 C-3.484375 15.99 -2.96875 16.98 -2.4375 18 C-1 21 -1 21 -1.625 23.25 C-3 25 -3 25 -6 27 C-6.66 26.34 -7.32 25.68 -8 25 C-7.67 24.01 -7.34 23.02 -7 22 C-7.33 21.01 -7.66 20.02 -8 19 C-7.34 18.34 -6.68 17.68 -6 17 C-6.495 16.505 -6.99 16.01 -7.5 15.5 C-9.57204343 12.04659428 -9.82838062 8.8734464 -9 5 C-5.99057097 0.98742796 -5.10203966 0 0 0 Z " fill="#555456" transform="translate(90,47)"/>
<path d="M0 0 C3.60486143 1.09238225 5.76648655 2.62926267 8.4375 5.1875 C11.19074062 7.63700643 11.19074062 7.63700643 14.8125 8.1875 C18.66624919 6.75178952 22.22446542 4.93749018 25.828125 2.9609375 C26.54484375 2.64382812 27.2615625 2.32671875 28 2 C28.66 2.33 29.32 2.66 30 3 C28.60886005 4.27596932 27.21185587 5.54554648 25.8125 6.8125 C25.03519531 7.52019531 24.25789063 8.22789063 23.45703125 8.95703125 C20.10866984 11.7411219 17.33073449 13.77821092 13 14.5 C7.66240199 13.61040033 5.25543965 9.43181222 2.1875 5.3125 C0 2 0 2 0 0 Z " fill="#38AD8B" transform="translate(148,23)"/>
<path d="M0 0 C0 2.64 0 5.28 0 8 C-3.92857754 9.85131483 -6.98775112 10.22004943 -11.3125 10.125 C-12.38113281 10.10695313 -13.44976562 10.08890625 -14.55078125 10.0703125 C-15.35902344 10.04710938 -16.16726562 10.02390625 -17 10 C-17.33 9.34 -17.66 8.68 -18 8 C-17.0625 5.375 -17.0625 5.375 -16 3 C-15.40832031 2.95101562 -14.81664063 2.90203125 -14.20703125 2.8515625 C-9.41567676 2.39822064 -4.55203067 0 0 0 Z " fill="#2E87C4" transform="translate(136,79)"/>
<path d="M0 0 C4.19976597 3.8682055 6.62942089 6.82360764 7.30078125 12.578125 C7.33019001 19.2833214 7.24852134 26.47043611 2.46484375 31.66796875 C0.8125 33.0625 0.8125 33.0625 -2 35 C-2 32.69 -2 30.38 -2 28 C-3.32 28.33 -4.64 28.66 -6 29 C-5.505 28.113125 -5.01 27.22625 -4.5 26.3125 C-2.08432834 20.82336814 -2.76172626 14.86859393 -3 9 C-2.34 9 -1.68 9 -1 9 C-0.67 15.6 -0.34 22.2 0 29 C0.99 29 1.98 29 3 29 C2.67 28.34 2.34 27.68 2 27 C1.960008 25.00039988 1.95653201 22.99952758 2 21 C2.66 21 3.32 21 4 21 C4.52103978 11.5722639 4.52103978 11.5722639 1 3 C0.67 2.01 0.34 1.02 0 0 Z " fill="#3D81B7" transform="translate(138,51)"/>
<path d="M0 0 C0 2.31 0 4.62 0 7 C-0.99 7 -1.98 7 -3 7 C-2.01 7.66 -1.02 8.32 0 9 C-0.33 10.65 -0.66 12.3 -1 14 C-3.8125 14.3125 -3.8125 14.3125 -7 14 C-9.27338765 11.3477144 -9.95526736 9.67098964 -10.1875 6.1875 C-10.0946875 5.1046875 -10.0946875 5.1046875 -10 4 C-11.32 3.67 -12.64 3.34 -14 3 C-14 2.34 -14 1.68 -14 1 C-13.401875 1.20625 -12.80375 1.4125 -12.1875 1.625 C-8.52167257 2.25342756 -4.4305725 -0.16719142 0 0 Z " fill="#C7EDF2" transform="translate(155,44)"/>
<path d="M0 0 C0.66 0.33 1.32 0.66 2 1 C1.34 2.051875 0.68 3.10375 0 4.1875 C-3.61736037 11.48681645 -3.03825266 19.90790499 -0.5 27.5 C1.74470091 32.49364622 5.12653428 34.75252794 10 37 C7.70224179 37.80623095 6.50714974 38.21353673 4.21875 37.25 C-2.96318672 32.02677329 -5.06032152 26.45145622 -7 18 C-8.01354612 15.63073608 -8.01354612 15.63073608 -9 14 C-8.01 13.34 -7.02 12.68 -6 12 C-5.0876203 9.69793085 -4.48619785 7.38615272 -3.84375 4.99609375 C-3.5653125 4.33738281 -3.286875 3.67867187 -3 3 C-2.01 2.67 -1.02 2.34 0 2 C0 1.34 0 0.68 0 0 Z " fill="#D4EFF6" transform="translate(105,51)"/>
<path d="M0 0 C3.44620861 1.1487362 4.09169196 2.07581642 6.1875 4.9375 C6.71730469 5.64777344 7.24710938 6.35804687 7.79296875 7.08984375 C9 9 9 9 9 11 C6.1778917 12.91903365 4.87098068 12.99110212 1.375 12.75 C-2 12 -2 12 -4 10 C-4.375 7.125 -4.375 7.125 -4 4 C-2 1.625 -2 1.625 0 0 Z " fill="#F6F5F5" transform="translate(88,70)"/>
<path d="M0 0 C-0.99 0.495 -0.99 0.495 -2 1 C-2 1.66 -2 2.32 -2 3 C-1.030625 3.12375 -0.06125 3.2475 0.9375 3.375 C3.93579132 3.81033473 6.9058109 4.33416077 9.875 4.9375 C11.01582031 5.16759766 11.01582031 5.16759766 12.1796875 5.40234375 C12.78039062 5.59957031 13.38109375 5.79679687 14 6 C14.33 6.66 14.66 7.32 15 8 C10.76379597 7.73898904 6.52799603 7.47234313 2.29248047 7.20043945 C0.85117241 7.10871395 -0.59023503 7.01853661 -2.03173828 6.92993164 C-4.10216829 6.80239999 -6.17217855 6.66932845 -8.2421875 6.53515625 C-10.11173096 6.41732788 -10.11173096 6.41732788 -12.01904297 6.29711914 C-15 6 -15 6 -17 5 C-16.67 4.01 -16.34 3.02 -16 2 C-10.92679142 -0.03581546 -5.39500547 -0.2295747 0 0 Z " fill="#3FAD88" transform="translate(125,35)"/>
<path d="M0 0 C1.2065625 0.495 1.2065625 0.495 2.4375 1 C-0.5625 2 -0.5625 2 -4.5625 2 C-4.5625 3.32 -4.5625 4.64 -4.5625 6 C-2.14369071 8.26877535 -2.14369071 8.26877535 0.4375 10 C0.1075 10.99 -0.2225 11.98 -0.5625 13 C-0.95050781 12.34515625 -1.33851562 11.6903125 -1.73828125 11.015625 C-3.39575291 8.76018967 -3.39575291 8.76018967 -6.04296875 8.609375 C-6.93628906 8.65578125 -7.82960938 8.7021875 -8.75 8.75 C-9.65105469 8.78609375 -10.55210938 8.8221875 -11.48046875 8.859375 C-12.16753906 8.90578125 -12.85460938 8.9521875 -13.5625 9 C-13.8925 6.03 -14.2225 3.06 -14.5625 0 C-10.13720667 -2.21264666 -4.59723859 -1.29045294 0 0 Z " fill="#3984BE" transform="translate(65.5625,47)"/>
<path d="M0 0 C0.268125 1.216875 0.53625 2.43375 0.8125 3.6875 C2.53437985 10.42064395 5.06179469 13.30511669 11 17 C11 17.33 11 17.66 11 18 C8.125 18.125 8.125 18.125 5 18 C4.34 17.34 3.68 16.68 3 16 C0.42938689 15.35232207 0.42938689 15.35232207 -2 15 C-2.12375 14.360625 -2.2475 13.72125 -2.375 13.0625 C-2.58125 12.381875 -2.7875 11.70125 -3 11 C-3.66 10.67 -4.32 10.34 -5 10 C-4.34 10 -3.68 10 -3 10 C-3.226875 8.906875 -3.45375 7.81375 -3.6875 6.6875 C-4 3 -4 3 -2.625 1.0625 C-1 0 -1 0 0 0 Z " fill="#656465" transform="translate(100,71)"/>
<path d="M0 0 C7.24997422 -0.28307925 13.90961228 0.49025965 21 2 C20.27876953 2.67482422 20.27876953 2.67482422 19.54296875 3.36328125 C17.78745983 5.22545401 17.42874896 6.51325601 17 9 C15.88625 8.2884375 15.88625 8.2884375 14.75 7.5625 C10.61406963 5.21253956 7.29110174 4.86188321 2.5625 4.875 C1.63566406 4.87242188 0.70882812 4.86984375 -0.24609375 4.8671875 C-2.92865981 4.99655948 -5.38568718 5.40217166 -8 6 C-8 5.34 -8 4.68 -8 4 C-3.71 3.34 0.58 2.68 5 2 C3.35 1.67 1.7 1.34 0 1 C0 0.67 0 0.34 0 0 Z " fill="#DFF9F8" transform="translate(120,41)"/>
<path d="M0 0 C0.66 0 1.32 0 2 0 C2 4.62 2 9.24 2 14 C1.34 14 0.68 14 0 14 C0 15.65 0 17.3 0 19 C-1.65 18.67 -3.3 18.34 -5 18 C-4.66666667 15.66666667 -4.33333333 13.33333333 -4 11 C-3.87625 9.783125 -3.7525 8.56625 -3.625 7.3125 C-2.99547882 3.97603776 -2.37999434 2.37999434 0 0 Z " fill="#0CA2E2" transform="translate(73,60)"/>
<path d="M0 0 C-1.62339805 1.70884005 -3.29319053 3.37446717 -5 5 C-5.66 5 -6.32 5 -7 5 C-7.433125 5.9590625 -7.433125 5.9590625 -7.875 6.9375 C-9 9 -9 9 -11 10 C-11 8.02 -11 6.04 -11 4 C-14.77300358 5.0197307 -15.80206144 5.65872662 -17.8125 9.125 C-18.204375 10.07375 -18.59625 11.0225 -19 12 C-19.66 12 -20.32 12 -21 12 C-19.28927957 7.01039874 -16.82258481 3.60816306 -12.875 0.125 C-8.52015301 -1.57907056 -4.53842539 -0.73143555 0 0 Z " fill="#2491CE" transform="translate(124,47)"/>
<path d="M0 0 C0.556875 0.7425 1.11375 1.485 1.6875 2.25 C3.93027178 4.91707995 6.22074975 6.91556232 9 9 C8.67 10.98 8.34 12.96 8 15 C3.00232235 14.5240307 -0.07050258 13.12573658 -4 10 C-5.375 7.75 -5.375 7.75 -6 6 C-5.34 6 -4.68 6 -4 6 C-4 6.66 -4 7.32 -4 8 C-0.98968256 8.93423645 -0.13349732 9.04449911 3 8 C2.505 7.4225 2.01 6.845 1.5 6.25 C0 4 0 4 0 0 Z " fill="#4280B6" transform="translate(111,74)"/>
<path d="M0 0 C3.63 0 7.26 0 11 0 C11 0.66 11 1.32 11 2 C11.66 2.33 12.32 2.66 13 3 C13 3.99 13 4.98 13 6 C9.40735548 7.19754817 6.77282526 7.33094958 3 7 C0.5625 5 0.5625 5 -1 3 C-0.67 2.01 -0.34 1.02 0 0 Z " fill="#525353" transform="translate(86,82)"/>
<path d="M0 0 C7.82152466 0.03408072 7.82152466 0.03408072 10.7109375 2.40234375 C12.0625 4.0625 12.0625 4.0625 14 7 C13.67 7.66 13.34 8.32 13 9 C12.01 7.68 11.02 6.36 10 5 C9.01 5.33 8.02 5.66 7 6 C6.67 8.64 6.34 11.28 6 14 C5.67 14 5.34 14 5 14 C4.62875 12.6078125 4.62875 12.6078125 4.25 11.1875 C2.93545755 7.83541675 2.02036616 6.8122197 -1 5 C-0.67 3.35 -0.34 1.7 0 0 Z " fill="#1A94D4" transform="translate(61,48)"/>
<path d="M0 0 C3.54273659 1.1809122 4.48047364 2.60774658 6.203125 5.84765625 C8.8565269 13.01444275 6.75898892 20.20106301 4 27 C3.67 27 3.34 27 3 27 C3 25.02 3 23.04 3 21 C3.66 21 4.32 21 5 21 C5 16.38 5 11.76 5 7 C3.68 7.99 2.36 8.98 1 10 C-0.83691257 6.21812119 -1.15837626 4.05431692 0 0 Z " fill="#1DA4DD" transform="translate(70,53)"/>
<path d="M0 0 C1.77049689 -0.05410687 3.54146849 -0.09284119 5.3125 -0.125 C6.29863281 -0.14820313 7.28476563 -0.17140625 8.30078125 -0.1953125 C11 0 11 0 14 2 C13.34 2 12.68 2 12 2 C11.67 3.65 11.34 5.3 11 7 C7.37 7.33 3.74 7.66 0 8 C0.66 7.67 1.32 7.34 2 7 C2.33 6.01 2.66 5.02 3 4 C3.66 3.67 4.32 3.34 5 3 C2.03 2.505 2.03 2.505 -1 2 C-0.67 1.34 -0.34 0.68 0 0 Z " fill="#3887BF" transform="translate(117,45)"/>
<path d="M0 0 C0.05389087 1.95803507 0.09274217 3.91648909 0.125 5.875 C0.14820313 6.96554688 0.17140625 8.05609375 0.1953125 9.1796875 C0 12 0 12 -2 14 C-2.81928886 12.75443908 -3.63015186 11.50333365 -4.4375 10.25 C-4.88996094 9.55390625 -5.34242188 8.8578125 -5.80859375 8.140625 C-6.9608009 6.07042986 -7.54676982 4.31303676 -8 2 C-1.125 0 -1.125 0 0 0 Z " fill="#3FAD9F" transform="translate(156,58)"/>
<path d="M0 0 C0.66 0 1.32 0 2 0 C2.16395574 4.9186721 2.19122882 7.61754237 0 12 C-0.45064632 14.58532701 -0.45064632 14.58532701 -0.625 17.25 C-0.69976562 18.14203125 -0.77453125 19.0340625 -0.8515625 19.953125 C-0.90054688 20.62859375 -0.94953125 21.3040625 -1 22 C-2.65 22.33 -4.3 22.66 -6 23 C-6.33 22.34 -6.66 21.68 -7 21 C-5.65896305 17.51330392 -4.18291202 14.33064864 -2.375 11.0625 C-0.67368124 7.27319913 -0.35572638 4.12642601 0 0 Z " fill="#2290CE" transform="translate(67,62)"/>
<path d="M0 0 C0.99 0.33 1.98 0.66 3 1 C2.25 8.625 2.25 8.625 0 12 C-1.32 12 -2.64 12 -4 12 C-4.33292585 7.75519536 -4.43885872 5.64457375 -2 2.0625 C-1.34 1.381875 -0.68 0.70125 0 0 Z " fill="#37AD93" transform="translate(153,8)"/>
<path d="M0 0 C3.3 0.33 6.6 0.66 10 1 C8 5 8 5 5 7 C1.8125 7.125 1.8125 7.125 -1 7 C-1.33 6.34 -1.66 5.68 -2 5 C-1.0625 2.375 -1.0625 2.375 0 0 Z " fill="#2792CF" transform="translate(120,82)"/>
<path d="M0 0 C-0.33 1.98 -0.66 3.96 -1 6 C3.455 5.505 3.455 5.505 8 5 C4.54780571 8.45219429 3.29046767 8.9308678 -1.5 9.1875 C-5 9 -5 9 -8 7 C-7.34 7 -6.68 7 -6 7 C-6 5.02 -6 3.04 -6 1 C-3.92446352 0.4465236 -2.15634036 0 0 0 Z " fill="#3085BE" transform="translate(62,78)"/>
<path d="M0 0 C2.09065618 3.39731629 2.42098999 6.04269405 2 10 C0.5 11.875 0.5 11.875 -1 13 C-1 11.68 -1 10.36 -1 9 C-0.34 9 0.32 9 1 9 C1 7.68 1 6.36 1 5 C-1.83151973 4.58190799 -1.83151973 4.58190799 -5 5 C-8.45910728 7.89817096 -9.25135357 10.48178989 -9.75 14.8125 C-9.85011115 16.2072304 -9.93912884 17.60300686 -10 19 C-10.33 19 -10.66 19 -11 19 C-11.90424722 10.6775765 -11.90424722 10.6775765 -9.83984375 6.84765625 C-7.00806185 3.42199681 -4.39648465 1.16377535 0 0 Z " fill="#2A9CD1" transform="translate(50,47)"/>
<path d="M0 0 C4 0 4 0 5.875 1.4375 C7.64044964 5.45880196 6.21295454 8.9160955 5 13 C1.86861645 9.86861645 0.10253063 6.5721363 -0.1875 2.125 C-0.125625 1.42375 -0.06375 0.7225 0 0 Z " fill="#5D5D5F" transform="translate(85,57)"/>
<path d="M0 0 C2.625 0.375 2.625 0.375 5 1 C5.6875 2.75 5.6875 2.75 6 5 C4.5625 7.25 4.5625 7.25 3 9 C1.0625 8.3125 1.0625 8.3125 -1 7 C-1.875 4.5 -1.875 4.5 -2 2 C-1.34 1.34 -0.68 0.68 0 0 Z " fill="#F2F2F3" transform="translate(90,52)"/>
<path d="M0 0 C2.6875 0.3125 2.6875 0.3125 5 1 C5.38218767 2.65614657 5.71395102 4.32457024 6 6 C5 7 5 7 1.9375 7.0625 C0.968125 7.041875 -0.00125 7.02125 -1 7 C-1.66 5.68 -2.32 4.36 -3 3 C-1.8125 1.4375 -1.8125 1.4375 0 0 Z " fill="#3F7BB2" transform="translate(149,51)"/>
<path d="M0 0 C0.33 0 0.66 0 1 0 C1.33 1.65 1.66 3.3 2 5 C3.65 3.35 5.3 1.7 7 0 C6.67 3.63 6.34 7.26 6 11 C3 11 3 11 0 9 C-0.29296875 6.8359375 -0.29296875 6.8359375 -0.1875 4.375 C-0.16042969 3.55773437 -0.13335937 2.74046875 -0.10546875 1.8984375 C-0.05326172 0.95871094 -0.05326172 0.95871094 0 0 Z " fill="#1999D8" transform="translate(102,64)"/>
<path d="M0 0 C0.66 0 1.32 0 2 0 C1.69320312 0.56203125 1.38640625 1.1240625 1.0703125 1.703125 C-0.02957585 4.06346934 -0.60095851 6.20465562 -1.125 8.75 C-1.37636719 9.94882812 -1.37636719 9.94882812 -1.6328125 11.171875 C-1.75398437 11.77515625 -1.87515625 12.3784375 -2 13 C-2.33 13 -2.66 13 -3 13 C-3.33 11.35 -3.66 9.7 -4 8 C-5.98 8 -7.96 8 -10 8 C-9.67 7.01 -9.34 6.02 -9 5 C-8.34 5 -7.68 5 -7 5 C-7 4.34 -7 3.68 -7 3 C-3.535 2.505 -3.535 2.505 0 2 C0 1.34 0 0.68 0 0 Z " fill="#D5F9F0" transform="translate(151,7)"/>
<path d="M0 0 C2.60018816 3.90028225 2.15085514 7.47434569 2 12 C1.01 12.33 0.02 12.66 -1 13 C-1 12.34 -1 11.68 -1 11 C-1.99 10.67 -2.98 10.34 -4 10 C-4.33 8.02 -4.66 6.04 -5 4 C-3.02 4.99 -3.02 4.99 -1 6 C-0.67 4.02 -0.34 2.04 0 0 Z " fill="#228DCB" transform="translate(108,69)"/>
<path d="M0 0 C4.90801549 1.48727742 8.40491293 4.44635485 12 8 C12 8.33 12 8.66 12 9 C10.02 9.33 8.04 9.66 6 10 C4.99421411 8.71283353 3.99553202 7.42011342 3 6.125 C2.443125 5.40570312 1.88625 4.68640625 1.3125 3.9453125 C0 2 0 2 0 0 Z " fill="#42AF84" transform="translate(148,23)"/>
<path d="M0 0 C2.31 1.98 4.62 3.96 7 6 C5.02 6.99 5.02 6.99 3 8 C2.34 8.66 1.68 9.32 1 10 C-1.475 6.04 -1.475 6.04 -4 2 C-2.68 1.34 -1.36 0.68 0 0 Z " fill="#E9FCFA" transform="translate(151,30)"/>
<path d="M0 0 C1 2 1 2 0.5625 3.6875 C-0.52835886 8.17214197 -0.30652194 11.96548844 1 16.375 C2.68199007 19.11614965 2.68199007 19.11614965 4.98046875 19.59375 C7.4475439 19.94321575 7.4475439 19.94321575 11 20 C11 20.33 11 20.66 11 21 C9.58603027 21.13595863 8.16823316 21.23243845 6.75 21.3125 C5.96109375 21.37050781 5.1721875 21.42851563 4.359375 21.48828125 C2 21 2 21 -0.2734375 18.89453125 C-2.33881804 15.43198153 -2.47622343 13.37792653 -2.375 9.375 C-2.35566406 7.68503906 -2.35566406 7.68503906 -2.3359375 5.9609375 C-2 3 -2 3 0 0 Z " fill="#D9F9FE" transform="translate(51,57)"/>
<path d="M0 0 C0.33 0.99 0.66 1.98 1 3 C1.66 3.33 2.32 3.66 3 4 C1.21118264 5.00508801 -0.58114696 6.00392736 -2.375 7 C-3.37273437 7.556875 -4.37046875 8.11375 -5.3984375 8.6875 C-8 10 -8 10 -10 10 C-8.5741914 6.54804233 -6.90253666 4.8985744 -3.875 2.75 C-3.15054688 2.22921875 -2.42609375 1.7084375 -1.6796875 1.171875 C-1.12539062 0.78515625 -0.57109375 0.3984375 0 0 Z " fill="#57B191" transform="translate(130,20)"/>
<path d="M0 0 C2.97 0 5.94 0 9 0 C8.34 2.31 7.68 4.62 7 7 C5.02 6.34 3.04 5.68 1 5 C1.33 3.68 1.66 2.36 2 1 C1.34 0.67 0.68 0.34 0 0 Z " fill="#717172" transform="translate(88,46)"/>
<path d="M0 0 C0.66 0.33 1.32 0.66 2 1 C-0.97 3.64 -3.94 6.28 -7 9 C-9.475 8.01 -9.475 8.01 -12 7 C-9.79812328 4.79812328 -7.77114318 3.71821071 -5 2.3125 C-4.113125 1.85488281 -3.22625 1.39726562 -2.3125 0.92578125 C-1.549375 0.62027344 -0.78625 0.31476562 0 0 Z " fill="#40A693" transform="translate(176,25)"/>
<path d="M0 0 C0.125 3.375 0.125 3.375 0 7 C-0.66 7.66 -1.32 8.32 -2 9 C-6.875 6.25 -6.875 6.25 -8 4 C-6.68 3.67 -5.36 3.34 -4 3 C-4.66 2.34 -5.32 1.68 -6 1 C-1.125 0 -1.125 0 0 0 Z " fill="#ECFBFA" transform="translate(148,14)"/>
<path d="M0 0 C2.97 0.495 2.97 0.495 6 1 C6 2.32 6 3.64 6 5 C5.34 5 4.68 5 4 5 C3.67 6.65 3.34 8.3 3 10 C2.34 9.67 1.68 9.34 1 9 C0.5859375 6.93359375 0.5859375 6.93359375 0.375 4.4375 C0.30023438 3.61121094 0.22546875 2.78492188 0.1484375 1.93359375 C0.09945312 1.29550781 0.05046875 0.65742187 0 0 Z " fill="#119CDB" transform="translate(45,51)"/>
<path d="M0 0 C0.9075 0.103125 1.815 0.20625 2.75 0.3125 C3.08 2.2925 3.41 4.2725 3.75 6.3125 C2.76 6.9725 1.77 7.6325 0.75 8.3125 C0.75 6.3325 0.75 4.3525 0.75 2.3125 C-3.02300358 3.3322307 -4.05206144 3.97122662 -6.0625 7.4375 C-6.454375 8.38625 -6.84625 9.335 -7.25 10.3125 C-7.91 10.3125 -8.57 10.3125 -9.25 10.3125 C-7.49963158 5.20725878 -5.81622882 0.55925277 0 0 Z " fill="#29A1D5" transform="translate(112.25,48.6875)"/>
<path d="M0 0 C-0.33 1.32 -0.66 2.64 -1 4 C-0.34 4.33 0.32 4.66 1 5 C-2.4352048 7.29013653 -3.985331 7.17842973 -8 7 C-7.34 6.01 -6.68 5.02 -6 4 C-6 3.01 -6 2.02 -6 1 C-4 0 -4 0 0 0 Z " fill="#5A5A5C" transform="translate(90,47)"/>
<path d="M0 0 C0.66 0.33 1.32 0.66 2 1 C2 1.99 2 2.98 2 4 C2.66 4 3.32 4 4 4 C4 4.66 4 5.32 4 6 C-5.405 6.495 -5.405 6.495 -15 7 C-11.2311658 5.1155829 -9.31987525 4.66570538 -5.25 4.375 C-4.26515625 4.30023437 -3.2803125 4.22546875 -2.265625 4.1484375 C-1.51796875 4.09945313 -0.7703125 4.05046875 0 4 C0 2.68 0 1.36 0 0 Z " fill="#E6FCF9" transform="translate(142,27)"/>
<path d="M0 0 C1.4540625 0.0309375 1.4540625 0.0309375 2.9375 0.0625 C2.9375 2.0425 2.9375 4.0225 2.9375 6.0625 C-0.0325 5.5675 -0.0325 5.5675 -3.0625 5.0625 C-3.625 3.125 -3.625 3.125 -4.0625 1.0625 C-3.0625 0.0625 -3.0625 0.0625 0 0 Z " fill="#317DBC" transform="translate(116.0625,82.9375)"/>
<path d="M0 0 C2.5625 0.1875 2.5625 0.1875 4.5625 2.1875 C4.2325 3.1775 3.9025 4.1675 3.5625 5.1875 C2.61375 5.166875 1.665 5.14625 0.6875 5.125 C-2.34416283 4.96198174 -2.34416283 4.96198174 -4.4375 6.1875 C-3.3735 0.2595 -3.3735 0.2595 0 0 Z " fill="#3D7AAF" transform="translate(150.4375,45.8125)"/>
<path d="M0 0 C0.763125 0.20625 1.52625 0.4125 2.3125 0.625 C1.3125 2.625 1.3125 2.625 0.3125 3.625 C0.3125 4.285 0.3125 4.945 0.3125 5.625 C-1.9975 5.625 -4.3075 5.625 -6.6875 5.625 C-6.375 3.75 -6.375 3.75 -5.6875 1.625 C-2.6875 -0.375 -2.6875 -0.375 0 0 Z " fill="#3BAD8F" transform="translate(137.6875,17.375)"/>
<path d="M0 0 C0 3.96 0 7.92 0 12 C-0.66 11.01 -1.32 10.02 -2 9 C-2.53625 8.319375 -3.0725 7.63875 -3.625 6.9375 C-5 5 -5 5 -5 3 C-1.42307692 0 -1.42307692 0 0 0 Z " fill="#F6F8F9" transform="translate(101,62)"/>
<path d="M0 0 C0.33 0.66 0.66 1.32 1 2 C0.01 2 -0.98 2 -2 2 C-1.34 2.33 -0.68 2.66 0 3 C0.40729228 5.32156597 0.74438677 7.6568787 1 10 C0.01 10.495 0.01 10.495 -1 11 C-2.32 7.7 -3.64 4.4 -5 1 C-3.35 0.67 -1.7 0.34 0 0 Z " fill="#38AA8E" transform="translate(153,59)"/>
<path d="M0 0 C0.66 0.33 1.32 0.66 2 1 C1.37755401 2.27208622 0.75193233 3.54261882 0.125 4.8125 C-0.22304687 5.52019531 -0.57109375 6.22789063 -0.9296875 6.95703125 C-2 9 -2 9 -4 12 C-5.04127245 8.6868604 -5.18574123 7.39801692 -3.6875 4.1875 C-3.130625 3.465625 -2.57375 2.74375 -2 2 C-1.34 2 -0.68 2 0 2 C0 1.34 0 0.68 0 0 Z " fill="#DCF6F8" transform="translate(105,51)"/>
<path d="M0 0 C1.98 0 3.96 0 6 0 C5.01 0.495 5.01 0.495 4 1 C3.34444881 3.52733235 3.34444881 3.52733235 3 6 C0.69 6 -1.62 6 -4 6 C-2.68 5.34 -1.36 4.68 0 4 C0 2.68 0 1.36 0 0 Z " fill="#3079B6" transform="translate(125,46)"/>
<path d="M0 0 C1 2 1 2 1 6 C1.66 6.33 2.32 6.66 3 7 C2.67 7.99 2.34 8.98 2 10 C0.68 10 -0.64 10 -2 10 C-2.25 3.375 -2.25 3.375 0 0 Z " fill="#45A98A" transform="translate(151,10)"/>
<path d="M0 0 C0.99 0.33 1.98 0.66 3 1 C2.67 1.66 2.34 2.32 2 3 C2.39938767 5.09821215 2.39938767 5.09821215 3 7 C1.02 7.99 1.02 7.99 -1 9 C-1.125 2.25 -1.125 2.25 0 0 Z " fill="#4A4A4C" transform="translate(82,50)"/>
<path d="M0 0 C0 0.66 0 1.32 0 2 C-1.65 2 -3.3 2 -5 2 C-5 2.66 -5 3.32 -5 4 C-2.69 4 -0.38 4 2 4 C2 4.33 2 4.66 2 5 C-5.75 5.125 -5.75 5.125 -8 4 C-7.67 3.01 -7.34 2.02 -7 1 C-4 0 -4 0 0 0 Z " fill="#73C0A0" transform="translate(116,36)"/>
<path d="M0 0 C0.33 0 0.66 0 1 0 C1.309375 1.093125 1.61875 2.18625 1.9375 3.3125 C2.58337897 5.55407994 3.2623117 7.7869351 4 10 C2.02 10.99 2.02 10.99 0 12 C-1.03159626 8.90521121 -0.97482862 7.47368607 -0.5625 4.3125 C-0.46066406 3.50425781 -0.35882813 2.69601563 -0.25390625 1.86328125 C-0.17011719 1.24839844 -0.08632812 0.63351563 0 0 Z " fill="#2D7EC1" transform="translate(110,72)"/>
<path d="M0 0 C0.66 0.66 1.32 1.32 2 2 C0.68 5.63 -0.64 9.26 -2 13 C-2.66 12.34 -3.32 11.68 -4 11 C-3.34 8.69 -2.68 6.38 -2 4 C-1.34 4 -0.68 4 0 4 C0 2.68 0 1.36 0 0 Z " fill="#CEEAEF" transform="translate(78,67)"/>
<path d="M0 0 C4.74164134 2.43161094 4.74164134 2.43161094 5.9375 5.0625 C5.958125 5.701875 5.97875 6.34125 6 7 C5.34 7.66 4.68 8.32 4 9 C3.71125 8.360625 3.4225 7.72125 3.125 7.0625 C2.17176549 4.84793921 2.17176549 4.84793921 0 4 C0 2.68 0 1.36 0 0 Z " fill="#696768" transform="translate(97,47)"/>
<path d="M0 0 C0.66 0.99 1.32 1.98 2 3 C0.865625 2.979375 -0.26875 2.95875 -1.4375 2.9375 C-4.81575674 2.58422523 -4.81575674 2.58422523 -6 4 C-7.66617115 4.04063832 -9.33388095 4.042721 -11 4 C-7.17425943 1.06693223 -4.94905522 -0.49490552 0 0 Z " fill="#D7FAF3" transform="translate(138,23)"/>
<path d="M0 0 C1.98 0.495 1.98 0.495 4 1 C3.67 2.65 3.34 4.3 3 6 C1.68 5.67 0.36 5.34 -1 5 C-0.67 3.35 -0.34 1.7 0 0 Z " fill="#2389CC" transform="translate(61,48)"/>
<path d="M0 0 C0.103125 0.639375 0.20625 1.27875 0.3125 1.9375 C0.539375 2.618125 0.76625 3.29875 1 4 C1.99 4.33 2.98 4.66 4 5 C2.68 6.65 1.36 8.3 0 10 C-1.125 2.25 -1.125 2.25 0 0 Z " fill="#575858" transform="translate(96,47)"/>
<path d="M0 0 C0.33 0.99 0.66 1.98 1 3 C1.99 3.33 2.98 3.66 4 4 C3.25 8.75 3.25 8.75 1 11 C0.67 7.37 0.34 3.74 0 0 Z " fill="#1BA8E7" transform="translate(102,60)"/>
<path d="M0 0 C1.32 0.33 2.64 0.66 4 1 C4 1.66 4 2.32 4 3 C2 5 2 5 -0.625 5.125 C-1.40875 5.08375 -2.1925 5.0425 -3 5 C-2.67 4.01 -2.34 3.02 -2 2 C-1.34 2 -0.68 2 0 2 C0 1.34 0 0.68 0 0 Z " fill="#B4D3CB" transform="translate(144,10)"/>
<path d="M0 0 C3.28212246 0.43761633 4.84832931 1.52557871 7 4 C4.125 4.1875 4.125 4.1875 1 4 C0.34 3.01 -0.32 2.02 -1 1 C-0.67 0.67 -0.34 0.34 0 0 Z " fill="#7A7A7C" transform="translate(104,85)"/>
<path d="M0 0 C0.99 1.32 1.98 2.64 3 4 C2.01 4.99 1.02 5.98 0 7 C-2 4 -2 4 -2 1 C-1.34 0.67 -0.68 0.34 0 0 Z " fill="#3C3C3C" transform="translate(78,78)"/>
<path d="M0 0 C3.37503669 1.1858237 5.64722731 2.27573689 8 5 C6.35 5.33 4.7 5.66 3 6 C0 2.25 0 2.25 0 0 Z " fill="#5AB189" transform="translate(148,23)"/>
<path d="M0 0 C2.72426311 2.35277269 3.8141763 4.62496331 5 8 C0.125 6.25 0.125 6.25 -1 4 C-0.34 4 0.32 4 1 4 C0.67 2.68 0.34 1.36 0 0 Z " fill="#3AA395" transform="translate(144,23)"/>
<path d="M0 0 C1.45742463 -0.08096803 2.91612807 -0.13917774 4.375 -0.1875 C5.18710937 -0.22230469 5.99921875 -0.25710937 6.8359375 -0.29296875 C7.55007812 -0.19628906 8.26421875 -0.09960938 9 0 C9.66 0.99 10.32 1.98 11 3 C7.37 2.34 3.74 1.68 0 1 C0 0.67 0 0.34 0 0 Z " fill="#DEF7FD" transform="translate(53,55)"/>
<path d="M0 0 C3.96 1.98 3.96 1.98 8 4 C8 4.33 8 4.66 8 5 C5.69 5 3.38 5 1 5 C0.67 3.35 0.34 1.7 0 0 Z " fill="#CDF1FB" transform="translate(49,82)"/>
<path d="M0 0 C0.66 0 1.32 0 2 0 C2 2.31 2 4.62 2 7 C1.01 7.33 0.02 7.66 -1 8 C-0.67 5.36 -0.34 2.72 0 0 Z " fill="#04A8E7" transform="translate(73,60)"/>
<path d="M0 0 C0.66 0 1.32 0 2 0 C1.67 0.5775 1.34 1.155 1 1.75 C-0.27075898 4.19883862 -0.27075898 4.19883862 0 8 C-0.99 8 -1.98 8 -3 8 C-2.45276317 4.62537285 -1.9451 2.91765 0 0 Z " fill="#09A5E9" transform="translate(108,52)"/>
<path d="M0 0 C3.36720387 1.39332574 4.9859524 2.9789286 7 6 C6.67 6.66 6.34 7.32 6 8 C5.566875 7.360625 5.13375 6.72125 4.6875 6.0625 C3.08760823 3.73253997 3.08760823 3.73253997 0 3 C0 2.01 0 1.02 0 0 Z " fill="#2B98CA" transform="translate(68,49)"/>
</svg>
